<mxfile host="app.diagrams.net" agent="Mozilla/5.0 (Windows NT 10.0; Win64; x64) AppleWebKit/537.36 (KHTML, like Gecko) Chrome/131.0.0.0 Safari/537.36" version="24.9.1">
  <diagram name="Page-1" id="zfZjm7Ds7Kw80Uj1_Kpj">
    <mxGraphModel dx="5414" dy="1447" grid="1" gridSize="10" guides="1" tooltips="1" connect="1" arrows="1" fold="1" page="1" pageScale="1" pageWidth="827" pageHeight="1169" math="0" shadow="0">
      <root>
        <mxCell id="0" />
        <mxCell id="1" parent="0" />
        <mxCell id="bbDMXbA_g-0mNeCE7X3n-49" value="&lt;div style=&quot;&quot;&gt;&lt;font style=&quot;font-size: 50px;&quot;&gt;&lt;b style=&quot;&quot;&gt;&amp;nbsp; 4&lt;/b&gt;&lt;/font&gt;&lt;/div&gt;" style="rounded=1;strokeColor=#9673a6;fillColor=#e1d5e7;align=left;arcSize=12;verticalAlign=top;whiteSpace=wrap;html=1;fontSize=12;" vertex="1" parent="1">
          <mxGeometry x="50" y="929.9999999999999" width="290" height="580" as="geometry" />
        </mxCell>
        <mxCell id="bbDMXbA_g-0mNeCE7X3n-48" value="&lt;div style=&quot;&quot;&gt;&lt;font style=&quot;font-size: 50px;&quot;&gt;&lt;b style=&quot;&quot;&gt;&amp;nbsp; 5&amp;nbsp;&lt;/b&gt;&lt;/font&gt;&lt;/div&gt;" style="rounded=1;strokeColor=#9673a6;fillColor=#e1d5e7;align=right;arcSize=12;verticalAlign=top;whiteSpace=wrap;html=1;fontSize=12;" vertex="1" parent="1">
          <mxGeometry x="447" y="878.0699999999999" width="290" height="580" as="geometry" />
        </mxCell>
        <mxCell id="bbDMXbA_g-0mNeCE7X3n-46" value="&lt;div style=&quot;&quot;&gt;&lt;font style=&quot;font-size: 50px;&quot;&gt;&lt;b style=&quot;&quot;&gt;&amp;nbsp; 2&amp;nbsp;&lt;/b&gt;&lt;/font&gt;&lt;/div&gt;" style="rounded=1;strokeColor=#9673a6;fillColor=#e1d5e7;align=right;arcSize=12;verticalAlign=top;whiteSpace=wrap;html=1;fontSize=12;" vertex="1" parent="1">
          <mxGeometry x="470" y="274.07" width="290" height="580" as="geometry" />
        </mxCell>
        <mxCell id="bbDMXbA_g-0mNeCE7X3n-30" value="&lt;font color=&quot;#ff3300&quot; style=&quot;font-size: 50px;&quot;&gt;&lt;b style=&quot;&quot;&gt;Microbiote pdacRNA&lt;/b&gt;&lt;/font&gt;" style="rounded=1;strokeColor=#d79b00;fillColor=#ffe6cc;align=center;arcSize=12;verticalAlign=top;whiteSpace=wrap;html=1;fontSize=12;" vertex="1" parent="1">
          <mxGeometry x="-1900" y="360" width="780" height="1160" as="geometry" />
        </mxCell>
        <mxCell id="bbDMXbA_g-0mNeCE7X3n-29" value="&lt;div style=&quot;&quot;&gt;&lt;font style=&quot;font-size: 50px;&quot;&gt;&lt;b style=&quot;&quot;&gt;&amp;nbsp; 1&lt;/b&gt;&lt;/font&gt;&lt;/div&gt;" style="rounded=1;strokeColor=#9673a6;fillColor=#e1d5e7;align=left;arcSize=12;verticalAlign=top;whiteSpace=wrap;html=1;fontSize=12;" vertex="1" parent="1">
          <mxGeometry x="20" y="50" width="440" height="580" as="geometry" />
        </mxCell>
        <mxCell id="bbDMXbA_g-0mNeCE7X3n-1" value="" style="image;aspect=fixed;html=1;points=[];align=center;fontSize=12;image=img/lib/azure2/general/Files.svg;" vertex="1" parent="1">
          <mxGeometry x="240" y="80" width="150" height="164.07" as="geometry" />
        </mxCell>
        <mxCell id="bbDMXbA_g-0mNeCE7X3n-5" value="" style="edgeStyle=orthogonalEdgeStyle;rounded=0;orthogonalLoop=1;jettySize=auto;html=1;" edge="1" parent="1" source="bbDMXbA_g-0mNeCE7X3n-2" target="bbDMXbA_g-0mNeCE7X3n-3">
          <mxGeometry relative="1" as="geometry" />
        </mxCell>
        <mxCell id="bbDMXbA_g-0mNeCE7X3n-22" style="edgeStyle=orthogonalEdgeStyle;rounded=0;orthogonalLoop=1;jettySize=auto;html=1;exitX=0.5;exitY=1;exitDx=0;exitDy=0;entryX=0;entryY=0.5;entryDx=0;entryDy=0;" edge="1" parent="1" source="bbDMXbA_g-0mNeCE7X3n-2" target="bbDMXbA_g-0mNeCE7X3n-12">
          <mxGeometry relative="1" as="geometry" />
        </mxCell>
        <mxCell id="bbDMXbA_g-0mNeCE7X3n-2" value="&lt;font style=&quot;font-size: 25px;&quot;&gt;&lt;b&gt;Fastqs&lt;/b&gt;&lt;/font&gt;" style="text;html=1;align=center;verticalAlign=middle;whiteSpace=wrap;rounded=0;" vertex="1" parent="1">
          <mxGeometry x="300" y="244.07" width="60" height="30" as="geometry" />
        </mxCell>
        <mxCell id="bbDMXbA_g-0mNeCE7X3n-3" value="&lt;font color=&quot;#dddddd&quot;&gt;&lt;span style=&quot;font-size: 21px;&quot;&gt;&lt;b&gt;STAR&lt;/b&gt;&lt;/span&gt;&lt;/font&gt;" style="shape=step;perimeter=stepPerimeter;whiteSpace=wrap;html=1;fixedSize=1;size=10;direction=south;fillColor=#10739E;strokeColor=none;rounded=0;" vertex="1" parent="1">
          <mxGeometry x="260" y="340" width="140" height="140" as="geometry" />
        </mxCell>
        <mxCell id="bbDMXbA_g-0mNeCE7X3n-6" value="" style="image;aspect=fixed;html=1;points=[];align=center;fontSize=12;image=img/lib/azure2/general/Files.svg;" vertex="1" parent="1">
          <mxGeometry x="-1584" y="460" width="150" height="164.07" as="geometry" />
        </mxCell>
        <mxCell id="bbDMXbA_g-0mNeCE7X3n-42" style="edgeStyle=orthogonalEdgeStyle;rounded=0;orthogonalLoop=1;jettySize=auto;html=1;exitX=0.5;exitY=1;exitDx=0;exitDy=0;" edge="1" parent="1" source="bbDMXbA_g-0mNeCE7X3n-7" target="bbDMXbA_g-0mNeCE7X3n-31">
          <mxGeometry relative="1" as="geometry" />
        </mxCell>
        <mxCell id="bbDMXbA_g-0mNeCE7X3n-7" value="&lt;font style=&quot;font-size: 25px;&quot;&gt;&lt;b&gt;Unmapped Fastqs&lt;/b&gt;&lt;/font&gt;" style="text;html=1;align=center;verticalAlign=middle;whiteSpace=wrap;rounded=0;" vertex="1" parent="1">
          <mxGeometry x="-1599" y="630" width="180" height="70" as="geometry" />
        </mxCell>
        <mxCell id="bbDMXbA_g-0mNeCE7X3n-8" style="edgeStyle=orthogonalEdgeStyle;rounded=0;orthogonalLoop=1;jettySize=auto;html=1;exitX=1;exitY=0.5;exitDx=0;exitDy=0;entryX=1.004;entryY=0.589;entryDx=0;entryDy=0;entryPerimeter=0;" edge="1" parent="1" source="bbDMXbA_g-0mNeCE7X3n-3" target="bbDMXbA_g-0mNeCE7X3n-6">
          <mxGeometry relative="1" as="geometry" />
        </mxCell>
        <mxCell id="bbDMXbA_g-0mNeCE7X3n-9" value="" style="image;aspect=fixed;html=1;points=[];align=center;fontSize=12;image=img/lib/azure2/general/Files.svg;" vertex="1" parent="1">
          <mxGeometry x="264" y="680" width="150" height="164.07" as="geometry" />
        </mxCell>
        <mxCell id="bbDMXbA_g-0mNeCE7X3n-20" style="edgeStyle=orthogonalEdgeStyle;rounded=0;orthogonalLoop=1;jettySize=auto;html=1;exitX=0.5;exitY=1;exitDx=0;exitDy=0;" edge="1" parent="1" source="bbDMXbA_g-0mNeCE7X3n-10" target="bbDMXbA_g-0mNeCE7X3n-14">
          <mxGeometry relative="1" as="geometry" />
        </mxCell>
        <mxCell id="bbDMXbA_g-0mNeCE7X3n-21" style="edgeStyle=orthogonalEdgeStyle;rounded=0;orthogonalLoop=1;jettySize=auto;html=1;exitX=0.5;exitY=1;exitDx=0;exitDy=0;entryX=0;entryY=0.5;entryDx=0;entryDy=0;" edge="1" parent="1" source="bbDMXbA_g-0mNeCE7X3n-10" target="bbDMXbA_g-0mNeCE7X3n-13">
          <mxGeometry relative="1" as="geometry" />
        </mxCell>
        <mxCell id="bbDMXbA_g-0mNeCE7X3n-10" value="&lt;font style=&quot;font-size: 25px;&quot;&gt;&lt;b&gt;human BAMs&lt;/b&gt;&lt;/font&gt;" style="text;html=1;align=center;verticalAlign=middle;whiteSpace=wrap;rounded=0;" vertex="1" parent="1">
          <mxGeometry x="260" y="844.07" width="180" height="70" as="geometry" />
        </mxCell>
        <mxCell id="bbDMXbA_g-0mNeCE7X3n-11" style="edgeStyle=orthogonalEdgeStyle;rounded=0;orthogonalLoop=1;jettySize=auto;html=1;exitX=1;exitY=0.5;exitDx=0;exitDy=0;" edge="1" parent="1" source="bbDMXbA_g-0mNeCE7X3n-3">
          <mxGeometry relative="1" as="geometry">
            <mxPoint x="330" y="680" as="targetPoint" />
          </mxGeometry>
        </mxCell>
        <mxCell id="bbDMXbA_g-0mNeCE7X3n-45" style="edgeStyle=orthogonalEdgeStyle;rounded=0;orthogonalLoop=1;jettySize=auto;html=1;exitX=1;exitY=0.5;exitDx=0;exitDy=0;" edge="1" parent="1" source="bbDMXbA_g-0mNeCE7X3n-12" target="bbDMXbA_g-0mNeCE7X3n-26">
          <mxGeometry relative="1" as="geometry" />
        </mxCell>
        <mxCell id="bbDMXbA_g-0mNeCE7X3n-12" value="&lt;font color=&quot;#dddddd&quot;&gt;&lt;span style=&quot;font-size: 21px;&quot;&gt;&lt;b&gt;Kallisto&lt;/b&gt;&lt;/span&gt;&lt;/font&gt;" style="shape=step;perimeter=stepPerimeter;whiteSpace=wrap;html=1;fixedSize=1;size=10;direction=south;fillColor=#10739E;strokeColor=none;rounded=0;" vertex="1" parent="1">
          <mxGeometry x="540" y="340" width="140" height="140" as="geometry" />
        </mxCell>
        <mxCell id="bbDMXbA_g-0mNeCE7X3n-43" style="edgeStyle=orthogonalEdgeStyle;rounded=0;orthogonalLoop=1;jettySize=auto;html=1;exitX=1;exitY=0.5;exitDx=0;exitDy=0;" edge="1" parent="1" source="bbDMXbA_g-0mNeCE7X3n-13" target="bbDMXbA_g-0mNeCE7X3n-17">
          <mxGeometry relative="1" as="geometry" />
        </mxCell>
        <mxCell id="bbDMXbA_g-0mNeCE7X3n-13" value="&lt;font color=&quot;#dddddd&quot;&gt;&lt;span style=&quot;font-size: 21px;&quot;&gt;&lt;b&gt;FCount&lt;/b&gt;&lt;/span&gt;&lt;/font&gt;" style="shape=step;perimeter=stepPerimeter;whiteSpace=wrap;html=1;fixedSize=1;size=10;direction=south;fillColor=#10739E;strokeColor=none;rounded=0;" vertex="1" parent="1">
          <mxGeometry x="510" y="960" width="140" height="140" as="geometry" />
        </mxCell>
        <mxCell id="bbDMXbA_g-0mNeCE7X3n-14" value="&lt;font color=&quot;#dddddd&quot;&gt;&lt;span style=&quot;font-size: 21px;&quot;&gt;&lt;b&gt;GATK or Deepvariant&lt;/b&gt;&lt;/span&gt;&lt;/font&gt;" style="shape=step;perimeter=stepPerimeter;whiteSpace=wrap;html=1;fixedSize=1;size=10;direction=south;fillColor=#10739E;strokeColor=none;rounded=0;" vertex="1" parent="1">
          <mxGeometry x="150" y="960" width="140" height="140" as="geometry" />
        </mxCell>
        <mxCell id="bbDMXbA_g-0mNeCE7X3n-15" value="" style="image;aspect=fixed;html=1;points=[];align=center;fontSize=12;image=img/lib/azure2/general/Files.svg;" vertex="1" parent="1">
          <mxGeometry x="146" y="1294" width="150" height="164.07" as="geometry" />
        </mxCell>
        <mxCell id="bbDMXbA_g-0mNeCE7X3n-16" value="&lt;font style=&quot;font-size: 25px;&quot;&gt;&lt;b&gt;VCFs&lt;/b&gt;&lt;/font&gt;" style="text;html=1;align=center;verticalAlign=middle;whiteSpace=wrap;rounded=0;" vertex="1" parent="1">
          <mxGeometry x="142" y="1458.0700000000002" width="180" height="70" as="geometry" />
        </mxCell>
        <mxCell id="bbDMXbA_g-0mNeCE7X3n-17" value="" style="image;aspect=fixed;html=1;points=[];align=center;fontSize=12;image=img/lib/azure2/general/Files.svg;" vertex="1" parent="1">
          <mxGeometry x="506" y="1169" width="150" height="164.07" as="geometry" />
        </mxCell>
        <mxCell id="bbDMXbA_g-0mNeCE7X3n-18" value="&lt;font style=&quot;font-size: 25px;&quot;&gt;&lt;b&gt;Counts tables&lt;/b&gt;&lt;/font&gt;" style="text;html=1;align=center;verticalAlign=middle;whiteSpace=wrap;rounded=0;" vertex="1" parent="1">
          <mxGeometry x="502" y="1333.0700000000002" width="180" height="70" as="geometry" />
        </mxCell>
        <mxCell id="bbDMXbA_g-0mNeCE7X3n-44" style="edgeStyle=orthogonalEdgeStyle;rounded=0;orthogonalLoop=1;jettySize=auto;html=1;exitX=1;exitY=0.5;exitDx=0;exitDy=0;" edge="1" parent="1" source="bbDMXbA_g-0mNeCE7X3n-19" target="bbDMXbA_g-0mNeCE7X3n-15">
          <mxGeometry relative="1" as="geometry" />
        </mxCell>
        <mxCell id="bbDMXbA_g-0mNeCE7X3n-19" value="&lt;font color=&quot;#dddddd&quot;&gt;&lt;span style=&quot;font-size: 21px;&quot;&gt;&lt;b&gt;VEP&lt;/b&gt;&lt;/span&gt;&lt;/font&gt;" style="shape=step;perimeter=stepPerimeter;whiteSpace=wrap;html=1;fixedSize=1;size=10;direction=south;fillColor=#10739E;strokeColor=none;rounded=0;" vertex="1" parent="1">
          <mxGeometry x="150" y="1100" width="140" height="140" as="geometry" />
        </mxCell>
        <mxCell id="bbDMXbA_g-0mNeCE7X3n-26" value="" style="image;aspect=fixed;html=1;points=[];align=center;fontSize=12;image=img/lib/azure2/general/Files.svg;" vertex="1" parent="1">
          <mxGeometry x="536" y="537.96" width="150" height="164.07" as="geometry" />
        </mxCell>
        <mxCell id="bbDMXbA_g-0mNeCE7X3n-27" value="&lt;font style=&quot;font-size: 25px;&quot;&gt;&lt;b&gt;TPM matrixs&lt;/b&gt;&lt;/font&gt;" style="text;html=1;align=center;verticalAlign=middle;whiteSpace=wrap;rounded=0;" vertex="1" parent="1">
          <mxGeometry x="532" y="702.0300000000002" width="180" height="70" as="geometry" />
        </mxCell>
        <mxCell id="bbDMXbA_g-0mNeCE7X3n-31" value="&lt;font color=&quot;#dddddd&quot;&gt;&lt;span style=&quot;font-size: 21px;&quot;&gt;&lt;b&gt;KNEADATA&lt;/b&gt;&lt;/span&gt;&lt;/font&gt;" style="shape=step;perimeter=stepPerimeter;whiteSpace=wrap;html=1;fixedSize=1;size=10;direction=south;fillColor=#10739E;strokeColor=none;rounded=0;" vertex="1" parent="1">
          <mxGeometry x="-1580" y="740" width="140" height="140" as="geometry" />
        </mxCell>
        <mxCell id="bbDMXbA_g-0mNeCE7X3n-38" style="edgeStyle=orthogonalEdgeStyle;rounded=0;orthogonalLoop=1;jettySize=auto;html=1;exitX=1;exitY=0.5;exitDx=0;exitDy=0;" edge="1" parent="1" source="bbDMXbA_g-0mNeCE7X3n-32" target="bbDMXbA_g-0mNeCE7X3n-33">
          <mxGeometry relative="1" as="geometry" />
        </mxCell>
        <mxCell id="bbDMXbA_g-0mNeCE7X3n-41" style="edgeStyle=orthogonalEdgeStyle;rounded=0;orthogonalLoop=1;jettySize=auto;html=1;exitX=1;exitY=0.5;exitDx=0;exitDy=0;" edge="1" parent="1" source="bbDMXbA_g-0mNeCE7X3n-32" target="bbDMXbA_g-0mNeCE7X3n-35">
          <mxGeometry relative="1" as="geometry" />
        </mxCell>
        <mxCell id="bbDMXbA_g-0mNeCE7X3n-32" value="&lt;font color=&quot;#dddddd&quot;&gt;&lt;span style=&quot;font-size: 21px;&quot;&gt;&lt;b&gt;Kraken2&lt;/b&gt;&lt;/span&gt;&lt;/font&gt;" style="shape=step;perimeter=stepPerimeter;whiteSpace=wrap;html=1;fixedSize=1;size=10;direction=south;fillColor=#10739E;strokeColor=none;rounded=0;" vertex="1" parent="1">
          <mxGeometry x="-1583" y="900" width="140" height="140" as="geometry" />
        </mxCell>
        <mxCell id="bbDMXbA_g-0mNeCE7X3n-33" value="" style="image;aspect=fixed;html=1;points=[];align=center;fontSize=12;image=img/lib/azure2/general/Files.svg;" vertex="1" parent="1">
          <mxGeometry x="-1726" y="1169" width="150" height="164.07" as="geometry" />
        </mxCell>
        <mxCell id="bbDMXbA_g-0mNeCE7X3n-34" value="&lt;font style=&quot;font-size: 25px;&quot;&gt;&lt;b&gt;OTU tables&lt;/b&gt;&lt;/font&gt;" style="text;html=1;align=center;verticalAlign=middle;whiteSpace=wrap;rounded=0;" vertex="1" parent="1">
          <mxGeometry x="-1730" y="1333.0700000000002" width="180" height="70" as="geometry" />
        </mxCell>
        <mxCell id="bbDMXbA_g-0mNeCE7X3n-35" value="" style="image;aspect=fixed;html=1;points=[];align=center;fontSize=12;image=img/lib/azure2/general/Files.svg;" vertex="1" parent="1">
          <mxGeometry x="-1436" y="1169" width="150" height="164.07" as="geometry" />
        </mxCell>
        <mxCell id="bbDMXbA_g-0mNeCE7X3n-36" value="&lt;font style=&quot;font-size: 25px;&quot;&gt;&lt;b&gt;TAX tables&lt;/b&gt;&lt;/font&gt;" style="text;html=1;align=center;verticalAlign=middle;whiteSpace=wrap;rounded=0;" vertex="1" parent="1">
          <mxGeometry x="-1440" y="1333.0700000000002" width="180" height="70" as="geometry" />
        </mxCell>
      </root>
    </mxGraphModel>
  </diagram>
</mxfile>
